<?xml version="1.0" encoding="UTF-8" standalone="no"?>
<svg
   xmlns:dc="http://purl.org/dc/elements/1.1/"
   xmlns:cc="http://creativecommons.org/ns#"
   xmlns:rdf="http://www.w3.org/1999/02/22-rdf-syntax-ns#"
   xmlns:svg="http://www.w3.org/2000/svg"
   xmlns="http://www.w3.org/2000/svg"
   xmlns:sodipodi="http://sodipodi.sourceforge.net/DTD/sodipodi-0.dtd"
   xmlns:inkscape="http://www.inkscape.org/namespaces/inkscape"
   width="1024pt"
   height="976pt"
   viewBox="0 0 1024 976"
   version="1.1"
   id="svg2"
   inkscape:version="0.91 r13725"
   sodipodi:docname="cropped-cceh-logo-cyan.svg"
   inkscape:export-filename="C:\Users\Sebastian\Desktop\cropped-cceh-logo-cyan.png"
   inkscape:export-xdpi="599"
   inkscape:export-ydpi="599">
  <metadata
     id="metadata38">
    <rdf:RDF>
      <cc:Work
         rdf:about="">
        <dc:format>image/svg+xml</dc:format>
        <dc:type
           rdf:resource="http://purl.org/dc/dcmitype/StillImage" />
      </cc:Work>
    </rdf:RDF>
  </metadata>
  <defs
     id="defs36" />
  <sodipodi:namedview
     pagecolor="#ffffff"
     bordercolor="#666666"
     borderopacity="1"
     objecttolerance="10"
     gridtolerance="10"
     guidetolerance="10"
     inkscape:pageopacity="0"
     inkscape:pageshadow="2"
     inkscape:window-width="1920"
     inkscape:window-height="1017"
     id="namedview34"
     showgrid="false"
     inkscape:zoom="0.45014485"
     inkscape:cx="122.13337"
     inkscape:cy="626.52528"
     inkscape:window-x="-8"
     inkscape:window-y="-8"
     inkscape:window-maximized="1"
     inkscape:current-layer="svg2" />
  <path
     fill="#04a1e4"
     d=" M 711.64 59.42 C 740.58 50.55 769.09 40.38 797.56 30.13 C 796.07 46.84 792.30 63.27 790.48 79.94 C 787.59 96.96 785.37 114.08 782.65 131.12 C 761.79 270.21 740.75 409.27 719.88 548.36 C 718.75 557.96 716.53 567.39 715.66 577.02 C 705.88 639.71 696.85 702.50 687.14 765.19 C 686.62 769.66 686.27 774.17 685.21 778.56 C 684.33 780.99 681.71 782.12 679.70 783.49 C 654.22 798.30 626.11 807.85 598.03 816.38 C 554.48 829.26 509.88 838.22 465.13 845.73 C 438.54 849.76 411.78 852.73 384.97 854.67 C 373.69 855.87 362.32 856.07 351.04 857.25 C 345.70 857.62 340.33 857.22 335.01 857.85 C 327.73 858.95 320.34 858.44 313.01 858.95 C 304.69 859.64 296.30 859.11 288.00 860.18 C 276.67 860.45 265.32 860.19 253.98 860.69 C 241.03 861.94 228.00 861.01 215.02 861.46 C 192.25 861.67 169.48 861.45 146.72 861.28 C 178.42 629.86 209.79 398.39 241.41 166.96 C 243.23 155.21 244.18 143.34 246.45 131.67 C 260.28 131.51 274.16 131.97 287.95 130.62 C 298.65 130.62 309.30 129.52 319.99 129.24 C 326.93 128.30 333.99 129.05 340.91 127.86 C 385.90 125.12 430.81 121.00 475.51 115.09 C 496.26 112.05 517.05 109.20 537.62 105.02 C 556.64 101.75 575.31 96.73 594.17 92.69 C 610.44 88.77 626.54 84.20 642.78 80.16 C 665.76 73.35 688.91 67.07 711.64 59.42 Z"
     id="path6" />
  <path
     fill="#fcfeff"
     d=" M 713.87 96.69 C 725.16 94.41 736.97 96.17 747.73 99.99 C 747.03 107.03 745.44 113.95 744.91 121.02 C 744.66 124.70 743.96 128.32 743.15 131.92 C 737.41 128.84 731.65 125.62 725.25 124.16 C 711.67 120.82 697.37 124.11 684.95 129.91 C 667.94 137.77 654.04 151.15 643.29 166.30 C 633.91 179.38 627.48 194.65 625.29 210.63 C 623.59 222.09 624.20 234.41 629.89 244.76 C 634.82 253.96 643.90 260.82 654.11 263.02 C 672.24 266.00 690.87 260.15 705.72 249.77 C 714.52 243.95 721.66 236.15 729.67 229.38 C 728.69 239.29 726.86 249.10 725.78 259.01 C 725.81 262.47 722.26 263.99 719.97 265.89 C 698.61 281.25 672.73 292.68 645.91 290.51 C 634.21 289.08 622.55 284.33 614.39 275.60 C 605.15 267.04 599.80 254.87 598.30 242.48 C 596.25 231.88 598.18 221.13 599.84 210.63 C 603.46 193.72 610.54 177.61 620.10 163.22 C 629.83 148.29 641.74 134.75 655.57 123.49 C 672.40 110.00 692.47 100.07 713.87 96.69 Z"
     id="path8" />
  <path
     fill="#04a1e4"
     d=" M 806.61 102.77 C 814.01 102.29 821.36 101.20 828.73 100.39 C 829.02 107.53 826.88 114.41 826.23 121.46 C 790.75 358.09 755.29 594.72 719.82 831.35 C 719.26 836.03 718.64 840.72 717.35 845.26 C 704.38 848.06 691.19 849.61 678.12 851.81 C 637.30 857.47 596.29 861.75 555.23 865.09 C 546.18 865.96 537.05 866.03 528.04 867.35 C 509.20 868.01 490.44 870.41 471.57 870.60 C 456.44 872.16 441.20 871.45 426.01 871.70 C 421.28 871.84 416.56 871.43 411.86 871.01 C 416.87 870.58 421.90 870.67 426.92 870.29 C 444.42 867.84 462.01 865.99 479.41 862.83 C 511.47 857.22 543.40 850.75 574.95 842.72 C 607.25 834.27 639.31 824.41 669.73 810.51 C 680.62 805.29 691.73 799.99 700.82 791.88 C 702.46 790.67 703.14 788.72 703.41 786.78 C 736.78 565.16 770.13 343.53 803.49 121.92 C 804.36 115.51 805.22 109.09 806.61 102.77 Z"
     id="path10" />
  <path
     fill="#fcfeff"
     d=" M 519.38 147.78 C 536.03 141.93 554.96 139.74 571.68 146.56 C 570.67 157.30 569.09 167.97 568.07 178.70 C 557.87 172.45 546.06 168.21 533.94 169.40 C 515.04 171.36 497.61 181.02 484.07 194.08 C 471.00 207.03 460.35 222.75 454.65 240.34 C 450.74 254.04 448.39 268.92 452.61 282.83 C 456.15 295.18 466.16 305.73 478.73 308.95 C 487.22 311.63 496.37 310.79 504.87 308.57 C 518.31 305.80 530.35 298.55 540.68 289.70 C 545.96 285.52 550.21 280.22 555.48 276.03 C 555.00 286.51 553.25 296.92 552.07 307.34 C 550.42 310.20 547.31 311.74 544.78 313.70 C 526.92 326.32 506.13 335.94 484.04 337.21 C 471.03 338.12 457.58 334.85 447.01 327.08 C 434.28 318.12 426.18 303.35 424.47 287.98 C 422.72 274.94 424.25 261.61 427.58 248.93 C 433.29 227.22 444.92 207.41 459.41 190.41 C 475.18 171.27 495.87 155.95 519.38 147.78 Z"
     id="path12" />
  <path
     fill="#04a1e4"
     d=" M 838.62 171.47 C 844.97 172.39 851.42 172.23 857.74 173.40 C 857.95 180.24 856.01 186.87 855.39 193.64 C 843.63 274.74 832.13 355.88 820.23 436.96 C 819.36 446.96 817.05 456.77 816.02 466.76 C 809.82 509.51 803.83 552.31 797.42 595.04 C 795.68 610.77 792.67 626.32 790.79 642.03 C 776.61 740.23 762.42 838.40 748.35 936.61 C 712.08 933.32 675.85 929.64 639.58 926.31 C 626.53 924.59 613.36 924.09 600.31 922.50 C 504.89 913.34 409.46 904.33 314.07 895.06 C 297.56 893.90 281.15 891.65 264.64 890.46 C 252.38 888.72 239.96 888.50 227.71 886.75 C 214.53 885.70 201.38 884.25 188.22 883.04 C 183.40 882.20 178.36 882.76 173.70 881.04 C 178.44 880.21 183.26 880.54 188.05 880.53 C 216.99 882.89 245.99 884.49 274.97 886.39 C 284.04 886.20 293.00 887.87 302.08 887.71 C 311.35 888.54 320.68 888.29 329.95 889.13 C 338.95 889.59 348.01 888.92 356.95 890.19 C 374.28 890.97 391.65 890.13 408.96 891.22 C 415.98 891.16 423.00 891.31 430.02 891.14 C 439.68 890.26 449.39 890.89 459.07 890.53 C 466.06 890.78 472.95 889.26 479.94 889.43 C 496.33 888.86 512.68 887.48 529.02 886.39 C 564.99 883.49 600.99 880.73 636.82 876.37 C 649.47 875.42 661.92 872.81 674.55 871.75 C 694.59 868.84 714.64 865.78 734.38 861.19 C 737.39 847.43 738.66 833.38 741.03 819.52 C 772.03 612.56 803.08 405.62 834.08 198.67 C 835.87 189.64 836.19 180.35 838.62 171.47 Z"
     id="path14" />
  <path
     fill="#04a1e4"
     d=" M 99.89 200.38 C 130.59 203.49 161.23 207.25 191.92 210.55 C 197.45 211.19 203.03 211.54 208.49 212.69 C 207.18 225.11 204.64 237.38 203.60 249.84 C 201.02 267.12 198.69 284.44 196.44 301.78 C 187.25 301.64 178.12 300.52 169.00 299.58 C 151.93 298.57 134.94 295.95 117.85 295.52 C 117.10 303.72 115.99 311.89 114.48 319.98 C 113.42 326.03 113.17 332.25 111.23 338.12 C 102.92 323.51 95.31 308.51 87.00 293.89 C 83.81 289.13 85.39 283.08 86.34 277.87 C 89.02 260.74 92.38 243.73 94.93 226.58 C 96.93 217.91 97.26 208.90 99.89 200.38 Z"
     id="path16" />
  <path
     d="m 866.03,279.27 c 6.71,-0.3 13.28,1.42 19.99,1.33 10.63,1.01 21.3,1.55 31.93,2.65 4.93,0.17 9.88,0.25 14.76,1.11 10.07,0.57 20.15,1.15 30.19,2.24 2.40749,5.94241 6.39187,11.35658 11.97,20.65 4.42,7.83 9,15.57 13.44,23.39 2.08,3.21 0.58,7.07 0.22,10.55 -4.43,27.26 -8.2,54.63 -12.84,81.86 -8.94,-15.24 -16.71,-31.15 -25.58,-46.44 -11.75528,-1.27102 -62.028,-4.41546 -95.85,-8.13 1.12,-14.45 3.78,-28.73 5.46,-43.12 2.18,-15.36 3.94,-30.76 6.31,-46.09 z"
     id="path18"
     inkscape:connector-curvature="0"
     style="fill:#04a1e4"
     sodipodi:nodetypes="ccccccccccccc" />
  <path
     fill="#fcfeff"
     d=" M 698.82 320.83 C 707.41 318.46 716.03 316.23 724.69 314.14 C 724.47 321.63 722.45 328.91 721.73 336.36 C 713.45 389.36 705.74 442.47 697.22 495.44 C 688.64 497.93 680.02 500.41 671.22 501.99 C 674.86 473.92 679.88 446.02 683.69 417.97 C 680.31 418.46 676.99 419.27 673.73 420.25 C 652.03 426.19 630.14 431.44 608.49 437.54 C 607.04 443.57 606.20 449.73 605.46 455.89 C 601.98 477.92 598.64 499.97 595.30 522.02 C 586.73 524.65 578.04 526.92 569.30 528.91 C 569.86 518.17 572.35 507.66 573.71 497.01 C 576.69 478.02 579.39 458.98 582.53 440.02 C 583.74 428.62 586.26 417.41 587.56 406.02 C 590.88 386.60 593.30 367.06 596.67 347.66 C 605.27 345.26 613.87 342.73 622.64 341.00 C 622.21 349.85 620.07 358.48 618.96 367.24 C 618.08 374.21 616.54 381.07 615.84 388.06 C 614.94 395.69 613.17 403.19 612.29 410.83 C 614.10 410.68 615.94 410.60 617.75 410.23 C 639.11 404.67 660.45 398.99 681.84 393.53 C 684.00 392.95 686.10 392.18 688.16 391.32 C 690.89 369.56 694.82 347.97 697.74 326.25 C 698.07 324.43 698.47 322.63 698.82 320.83 Z"
     id="path20" />
  <path
     fill="#fcfeff"
     d=" M 498.57 366.84 C 508.80 365.14 519.88 364.96 529.36 369.77 C 538.60 374.32 546.15 382.82 548.73 392.89 C 550.44 398.72 550.86 404.87 550.48 410.92 C 547.73 438.44 534.20 463.37 518.67 485.72 C 503.14 507.18 485.27 526.85 466.02 545.02 C 437.05 572.53 404.99 596.61 371.68 618.59 C 366.93 622.01 361.30 624.33 357.21 628.58 C 355.08 635.43 355.71 642.86 355.53 649.98 C 355.24 662.67 358.47 676.18 367.43 685.58 C 374.09 692.89 384.43 695.78 394.06 695.36 C 413.02 693.76 430.55 684.91 445.51 673.54 C 474.40 651.15 496.49 621.58 518.29 592.58 C 526.57 597.74 534.68 603.23 542.48 609.09 C 540.10 613.64 536.87 617.64 533.86 621.78 C 512.82 650.91 489.84 678.93 462.75 702.68 C 453.75 709.78 444.92 717.20 435.02 723.04 C 415.21 735.78 392.92 744.82 369.66 748.75 C 363.80 749.36 357.90 749.56 352.02 749.54 C 334.93 749.75 317.86 742.27 306.52 729.48 C 294.70 716.61 288.86 699.23 287.51 682.03 C 287.15 672.68 287.12 663.31 287.67 653.97 C 291.87 611.57 307.79 571.26 327.88 534.01 C 336.57 519.12 344.83 503.94 354.86 489.89 C 359.22 483.56 363.28 477.02 368.09 471.01 C 376.22 460.86 383.73 450.16 392.79 440.77 C 409.91 420.86 429.02 402.44 450.88 387.77 C 465.40 378.14 481.40 370.33 498.57 366.84 Z"
     id="path22" />
  <path
     fill="#04a1e4"
     d=" M 62.48 438.82 C 64.68 426.01 65.92 413.05 68.53 400.31 C 104.88 404.71 141.29 408.53 177.66 412.78 C 173.49 442.39 169.70 472.06 165.57 501.68 C 161.37 501.74 157.17 501.76 152.99 501.36 C 139.75 499.50 126.32 499.37 113.07 497.59 C 104.43 497.25 95.87 495.74 87.22 495.54 C 84.72 509.24 83.04 523.06 80.53 536.76 C 72.51 525.08 64.18 513.61 55.94 502.09 C 54.90 500.37 53.18 498.58 53.84 496.41 C 56.58 477.19 59.74 458.04 62.48 438.82 Z"
     id="path24" />
  <path
     fill="#04a1e4"
     d=" M 485.77 403.56 C 489.79 401.67 494.26 401.13 498.65 401.25 C 499.68 405.42 499.62 409.79 498.80 414.00 C 495.91 430.56 488.62 445.91 480.65 460.56 C 465.76 487.28 447.08 511.82 425.84 533.79 C 413.23 546.56 399.78 558.50 385.84 569.79 C 379.32 574.81 373.09 580.23 366.13 584.64 C 378.79 541.69 399.42 501.42 424.36 464.34 C 432.67 452.19 441.55 440.39 451.51 429.53 C 461.38 419.09 472.31 409.08 485.77 403.56 Z"
     id="path26" />
  <path
     fill="#04a1e4"
     d=" M 839.38 486.34 C 860.50 486.98 881.48 489.42 902.57 490.65 C 909.00 491.64 915.53 491.31 921.96 492.33 C 926.67 492.92 931.60 492.29 936.18 493.64 C 945.13 508.53 953.52 523.80 962.20 538.86 C 964.37 541.96 962.76 545.69 962.40 549.07 C 958.16 576.40 953.87 603.73 949.86 631.10 C 940.20 615.72 932.67 599.08 923.31 583.52 C 917.83 583.48 912.41 582.61 906.95 582.49 C 893.94 580.86 880.79 580.50 867.77 578.99 C 854.57 577.69 841.26 577.21 828.11 575.37 C 828.40 565.17 830.33 555.12 831.62 545.02 C 834.03 525.44 837.07 505.93 839.38 486.34 Z"
     id="path28" />
  <path
     fill="#04a1e4"
     d=" M 46.18 611.30 C 59.03 611.49 71.73 613.75 84.49 615.07 C 107.17 617.32 129.79 620.22 152.46 622.66 C 152.02 631.73 150.04 640.62 149.06 649.64 C 146.74 664.85 145.14 680.15 142.78 695.36 C 141.81 701.09 141.99 707.07 139.83 712.55 C 115.02 709.61 90.04 708.20 65.19 705.55 C 63.26 719.17 61.11 732.76 58.90 746.34 C 50.94 733.66 44.55 720.05 37.07 707.09 C 35.31 704.03 32.58 701.34 32.31 697.64 C 31.93 693.20 33.07 688.82 33.81 684.48 C 38.06 660.11 41.95 635.68 46.18 611.30 Z"
     id="path30" />
  <path
     fill="#04a1e4"
     d=" M 808.67 690.93 C 815.09 690.81 821.54 691.28 827.90 692.19 C 847.31 693.63 866.69 695.36 886.07 696.98 C 892.17 697.37 898.30 697.55 904.33 698.66 C 910.41 709.18 916.43 719.72 922.46 730.27 C 925.01 735.26 928.46 739.81 930.57 745.02 C 930.78 751.93 928.96 758.71 928.00 765.53 C 925.47 781.66 923.27 797.84 920.48 813.94 C 919.69 821.04 918.56 828.10 917.15 835.11 C 913.27 829.31 910.29 822.98 906.92 816.88 C 902.12 808.13 897.44 799.31 892.65 790.55 C 872.55 789.00 852.57 786.01 832.48 784.22 C 820.68 782.90 808.90 781.40 797.07 780.37 C 797.04 772.52 798.89 764.86 799.81 757.11 C 802.70 735.04 805.71 712.99 808.67 690.93 Z"
     id="path32" />
</svg>
